<svg width="982" height="498" viewBox="0 0 982 498" fill="none" xmlns="http://www.w3.org/2000/svg">
<circle cx="48" cy="240" r="47" fill="#1D216C" stroke="#1D216C" stroke-width="2"/>
<path d="M27.237 239.472C27.237 235.035 28.197 231.088 30.117 227.632C32.037 224.133 34.7037 221.424 38.117 219.504C41.573 217.541 45.477 216.56 49.829 216.56C55.1623 216.56 59.7277 217.968 63.525 220.784C67.3223 223.6 69.861 227.44 71.141 232.304H59.109C58.213 230.427 56.933 228.997 55.269 228.016C53.6477 227.035 51.7917 226.544 49.701 226.544C46.3303 226.544 43.5997 227.717 41.509 230.064C39.4183 232.411 38.373 235.547 38.373 239.472C38.373 243.397 39.4183 246.533 41.509 248.88C43.5997 251.227 46.3303 252.4 49.701 252.4C51.7917 252.4 53.6477 251.909 55.269 250.928C56.933 249.947 58.213 248.517 59.109 246.64H71.141C69.861 251.504 67.3223 255.344 63.525 258.16C59.7277 260.933 55.1623 262.32 49.829 262.32C45.477 262.32 41.573 261.36 38.117 259.44C34.7037 257.477 32.037 254.768 30.117 251.312C28.197 247.856 27.237 243.909 27.237 239.472Z" fill="white"/>
<circle cx="381" cy="240" r="47" fill="#1D216C" stroke="#1D216C" stroke-width="2"/>
<path d="M380.1 225.84V234.928H394.756V243.376H380.1V253.232H396.676V262H369.156V217.072H396.676V225.84H380.1Z" fill="white"/>
<circle cx="714" cy="240" r="47" fill="#1D216C" stroke="#1D216C" stroke-width="2"/>
<path d="M723.342 254.064H706.574L703.886 262H692.43L708.686 217.072H721.358L737.614 262H726.03L723.342 254.064ZM720.526 245.616L714.958 229.168L709.454 245.616H720.526Z" fill="white"/>
<circle cx="159" cy="240" r="47" fill="#DF2F31" stroke="#DF2F31" stroke-width="2"/>
<path d="M160.56 262.448C156.336 262.448 152.453 261.467 148.912 259.504C145.413 257.541 142.618 254.811 140.528 251.312C138.48 247.771 137.456 243.803 137.456 239.408C137.456 235.013 138.48 231.067 140.528 227.568C142.618 224.069 145.413 221.339 148.912 219.376C152.453 217.413 156.336 216.432 160.56 216.432C164.784 216.432 168.645 217.413 172.144 219.376C175.685 221.339 178.458 224.069 180.464 227.568C182.512 231.067 183.536 235.013 183.536 239.408C183.536 243.803 182.512 247.771 180.464 251.312C178.416 254.811 175.642 257.541 172.144 259.504C168.645 261.467 164.784 262.448 160.56 262.448ZM160.56 252.464C164.144 252.464 167.002 251.269 169.136 248.88C171.312 246.491 172.4 243.333 172.4 239.408C172.4 235.44 171.312 232.283 169.136 229.936C167.002 227.547 164.144 226.352 160.56 226.352C156.933 226.352 154.032 227.525 151.856 229.872C149.722 232.219 148.656 235.397 148.656 239.408C148.656 243.376 149.722 246.555 151.856 248.944C154.032 251.291 156.933 252.464 160.56 252.464Z" fill="white"/>
<circle cx="492" cy="240" r="47" fill="#1D216C" stroke="#1D216C" stroke-width="2"/>
<path d="M471.237 239.472C471.237 235.035 472.197 231.088 474.117 227.632C476.037 224.133 478.704 221.424 482.117 219.504C485.573 217.541 489.477 216.56 493.829 216.56C499.162 216.56 503.728 217.968 507.525 220.784C511.322 223.6 513.861 227.44 515.141 232.304H503.109C502.213 230.427 500.933 228.997 499.269 228.016C497.648 227.035 495.792 226.544 493.701 226.544C490.33 226.544 487.6 227.717 485.509 230.064C483.418 232.411 482.373 235.547 482.373 239.472C482.373 243.397 483.418 246.533 485.509 248.88C487.6 251.227 490.33 252.4 493.701 252.4C495.792 252.4 497.648 251.909 499.269 250.928C500.933 249.947 502.213 248.517 503.109 246.64H515.141C513.861 251.504 511.322 255.344 507.525 258.16C503.728 260.933 499.162 262.32 493.829 262.32C489.477 262.32 485.573 261.36 482.117 259.44C478.704 257.477 476.037 254.768 474.117 251.312C472.197 247.856 471.237 243.909 471.237 239.472Z" fill="white"/>
<circle cx="823" cy="240" r="47" fill="#1D216C" stroke="#1D216C" stroke-width="2"/>
<path d="M822.05 217.072C826.786 217.072 830.925 218.011 834.466 219.888C838.007 221.765 840.738 224.411 842.658 227.824C844.621 231.195 845.602 235.099 845.602 239.536C845.602 243.931 844.621 247.835 842.658 251.248C840.738 254.661 837.986 257.307 834.402 259.184C830.861 261.061 826.743 262 822.05 262H805.218V217.072H822.05ZM821.346 252.528C825.485 252.528 828.706 251.397 831.01 249.136C833.314 246.875 834.466 243.675 834.466 239.536C834.466 235.397 833.314 232.176 831.01 229.872C828.706 227.568 825.485 226.416 821.346 226.416H816.162V252.528H821.346Z" fill="white"/>
<circle cx="270" cy="240" r="47" fill="#DF2F31" stroke="#DF2F31" stroke-width="2"/>
<path d="M291.598 262H280.654L262.35 234.288V262H251.406V217.072H262.35L280.654 244.912V217.072H291.598V262Z" fill="white"/>
<circle cx="603" cy="240" r="47" fill="#1D216C" stroke="#1D216C" stroke-width="2"/>
<path d="M621.382 217.072V225.84H609.478V262H598.534V225.84H586.63V217.072H621.382Z" fill="white"/>
<circle cx="934" cy="240" r="47" fill="#1D216C" stroke="#1D216C" stroke-width="2"/>
<path d="M943.342 254.064H926.574L923.886 262H912.43L928.686 217.072H941.358L957.614 262H946.03L943.342 254.064ZM940.526 245.616L934.958 229.168L929.454 245.616H940.526Z" fill="white"/>
<path d="M511.527 324.072L495.975 354.152V369H485.031V354.152L469.479 324.072H481.895L490.599 342.888L499.239 324.072H511.527Z" fill="#1D216C"/>
<path d="M305.062 478.77C299.415 478.77 294.355 477.853 289.882 476.02C285.408 474.187 281.815 471.473 279.102 467.88C276.462 464.287 275.068 459.96 274.922 454.9H294.942C295.235 457.76 296.225 459.96 297.912 461.5C299.598 462.967 301.798 463.7 304.512 463.7C307.298 463.7 309.498 463.077 311.112 461.83C312.725 460.51 313.532 458.713 313.532 456.44C313.532 454.533 312.872 452.957 311.552 451.71C310.305 450.463 308.728 449.437 306.822 448.63C304.988 447.823 302.348 446.907 298.902 445.88C293.915 444.34 289.845 442.8 286.692 441.26C283.538 439.72 280.825 437.447 278.552 434.44C276.278 431.433 275.142 427.51 275.142 422.67C275.142 415.483 277.745 409.873 282.952 405.84C288.158 401.733 294.942 399.68 303.302 399.68C311.808 399.68 318.665 401.733 323.872 405.84C329.078 409.873 331.865 415.52 332.232 422.78H311.882C311.735 420.287 310.818 418.343 309.132 416.95C307.445 415.483 305.282 414.75 302.642 414.75C300.368 414.75 298.535 415.373 297.142 416.62C295.748 417.793 295.052 419.517 295.052 421.79C295.052 424.283 296.225 426.227 298.572 427.62C300.918 429.013 304.585 430.517 309.572 432.13C314.558 433.817 318.592 435.43 321.672 436.97C324.825 438.51 327.538 440.747 329.812 443.68C332.085 446.613 333.222 450.39 333.222 455.01C333.222 459.41 332.085 463.407 329.812 467C327.612 470.593 324.385 473.453 320.132 475.58C315.878 477.707 310.855 478.77 305.062 478.77ZM363.608 415.85V431.47H388.798V445.99H363.608V462.93H392.098V478H344.798V400.78H392.098V415.85H363.608ZM455.569 425.2C454.176 422.633 452.159 420.69 449.519 419.37C446.953 417.977 443.909 417.28 440.389 417.28C434.303 417.28 429.426 419.297 425.759 423.33C422.093 427.29 420.259 432.607 420.259 439.28C420.259 446.393 422.166 451.967 425.979 456C429.866 459.96 435.183 461.94 441.929 461.94C446.549 461.94 450.436 460.767 453.589 458.42C456.816 456.073 459.163 452.7 460.629 448.3H436.759V434.44H477.679V451.93C476.286 456.623 473.903 460.987 470.529 465.02C467.229 469.053 463.013 472.317 457.879 474.81C452.746 477.303 446.953 478.55 440.499 478.55C432.873 478.55 426.053 476.9 420.039 473.6C414.099 470.227 409.443 465.57 406.069 459.63C402.769 453.69 401.119 446.907 401.119 439.28C401.119 431.653 402.769 424.87 406.069 418.93C409.443 412.917 414.099 408.26 420.039 404.96C425.979 401.587 432.763 399.9 440.389 399.9C449.629 399.9 457.403 402.137 463.709 406.61C470.089 411.083 474.306 417.28 476.359 425.2H455.569ZM506.578 400.78V446.98C506.578 451.6 507.715 455.157 509.988 457.65C512.262 460.143 515.598 461.39 519.998 461.39C524.398 461.39 527.772 460.143 530.118 457.65C532.465 455.157 533.638 451.6 533.638 446.98V400.78H552.448V446.87C552.448 453.763 550.982 459.593 548.048 464.36C545.115 469.127 541.155 472.72 536.168 475.14C531.255 477.56 525.755 478.77 519.668 478.77C513.582 478.77 508.118 477.597 503.278 475.25C498.512 472.83 494.735 469.237 491.948 464.47C489.162 459.63 487.768 453.763 487.768 446.87V400.78H506.578ZM605.037 478L588.977 448.85H584.467V478H565.657V400.78H597.227C603.314 400.78 608.484 401.843 612.737 403.97C617.064 406.097 620.29 409.03 622.417 412.77C624.544 416.437 625.607 420.543 625.607 425.09C625.607 430.223 624.14 434.807 621.207 438.84C618.347 442.873 614.094 445.733 608.447 447.42L626.267 478H605.037ZM584.467 435.54H596.127C599.574 435.54 602.14 434.697 603.827 433.01C605.587 431.323 606.467 428.94 606.467 425.86C606.467 422.927 605.587 420.617 603.827 418.93C602.14 417.243 599.574 416.4 596.127 416.4H584.467V435.54ZM685.485 464.36H656.665L652.045 478H632.355L660.295 400.78H682.075L710.015 478H690.105L685.485 464.36ZM680.645 449.84L671.075 421.57L661.615 449.84H680.645Z" fill="#1D216C"/>
<path d="M60.224 169.424C60.224 171.493 59.744 173.381 58.784 175.088C57.8027 176.795 56.448 178.149 54.72 179.152C52.9707 180.133 51.008 180.624 48.832 180.624C46.656 180.624 44.704 180.133 42.976 179.152C41.2267 178.149 39.872 176.795 38.912 175.088C37.9307 173.381 37.44 171.493 37.44 169.424C37.44 167.333 37.9307 165.435 38.912 163.728C39.872 162.021 41.216 160.677 42.944 159.696C44.672 158.715 46.6347 158.224 48.832 158.224C51.0293 158.224 52.992 158.715 54.72 159.696C56.448 160.677 57.8027 162.021 58.784 163.728C59.744 165.435 60.224 167.333 60.224 169.424ZM57.696 169.424C57.696 167.867 57.3333 166.469 56.608 165.232C55.8827 163.973 54.848 162.992 53.504 162.288C52.16 161.563 50.6027 161.2 48.832 161.2C47.04 161.2 45.4827 161.563 44.16 162.288C42.816 162.992 41.7813 163.963 41.056 165.2C40.3307 166.437 39.968 167.845 39.968 169.424C39.968 171.003 40.3307 172.411 41.056 173.648C41.7813 174.885 42.816 175.867 44.16 176.592C45.4827 177.296 47.04 177.648 48.832 177.648C50.6027 177.648 52.16 177.296 53.504 176.592C54.848 175.867 55.8827 174.885 56.608 173.648C57.3333 172.389 57.696 170.981 57.696 169.424ZM60 136.844L60 139.756L42.24 151.468L60 151.468L60 154.38L37.664 154.38L37.664 151.468L55.392 139.756L37.664 139.756L37.664 136.844L60 136.844ZM40.064 128.968L47.52 128.968L47.52 120.84L49.92 120.84L49.92 128.968L57.6 128.968L57.6 119.88L60 119.88L60 131.88L37.664 131.88L37.664 119.88L40.064 119.88L40.064 128.968ZM48.832 116.562C46.656 116.562 44.704 116.071 42.976 115.09C41.2267 114.108 39.8613 112.775 38.88 111.089C37.8987 109.383 37.408 107.495 37.408 105.425C37.408 102.993 37.9947 100.871 39.168 99.0575C40.3413 97.2442 42.0053 95.9215 44.16 95.0895L44.16 98.5775C42.816 99.1962 41.7813 100.092 41.056 101.265C40.3307 102.417 39.968 103.804 39.968 105.425C39.968 106.983 40.3307 108.38 41.056 109.617C41.7813 110.855 42.816 111.825 44.16 112.529C45.4827 113.233 47.04 113.585 48.832 113.585C50.6027 113.585 52.16 113.233 53.504 112.529C54.8267 111.825 55.8507 110.855 56.576 109.617C57.3013 108.38 57.664 106.983 57.664 105.425C57.664 103.804 57.312 102.417 56.608 101.265C55.8827 100.092 54.848 99.1962 53.504 98.5775L53.504 95.0895C55.6373 95.9215 57.2907 97.2442 58.464 99.0575C59.616 100.871 60.192 102.994 60.192 105.425C60.192 107.495 59.712 109.383 58.752 111.089C57.7707 112.775 56.416 114.108 54.688 115.09C52.96 116.071 51.008 116.562 48.832 116.562ZM37.696 77.0267L40.064 77.0267L40.064 83.1067L60 83.1067L60 86.0188L40.064 86.0187L40.064 92.1308L37.696 92.1307L37.696 77.0267ZM55.04 60.2582L55.04 69.9863L60 71.7783L60 74.8503L37.824 66.7862L37.824 63.4262L60 55.3942L60 58.4662L55.04 60.2582ZM52.672 61.0902L41.408 65.1222L52.672 69.1542L52.672 61.0902ZM37.696 44.9358C37.696 42.5037 38.1547 40.4024 39.072 38.6317C39.968 36.8397 41.2587 35.4744 42.944 34.5357C44.6293 33.5757 46.6133 33.0957 48.896 33.0957C51.1787 33.0957 53.1627 33.5757 54.848 34.5357C56.512 35.4744 57.792 36.8397 58.688 38.6317C59.5627 40.4024 60 42.5037 60 44.9358L60 51.8798L37.696 51.8797L37.696 44.9358ZM57.6 44.9358C57.6 42.0557 56.8427 39.8584 55.328 38.3438C53.792 36.8291 51.648 36.0717 48.896 36.0717C46.1227 36.0717 43.9573 36.8397 42.4 38.3757C40.8427 39.8904 40.064 42.0771 40.064 44.9358L40.064 48.9677L57.6 48.9677L57.6 44.9358ZM55.04 16.0707L55.04 25.7988L60 27.5908L60 30.6628L37.824 22.5987L37.824 19.2387L60 11.2067L60 14.2787L55.04 16.0707ZM52.672 16.9027L41.408 20.9347L52.672 24.9667L52.672 16.9027Z" fill="#5D6169"/>
<path d="M173 167.792L163.88 173.104L163.88 176.624L173 176.624L173 179.536L150.696 179.536L150.696 172.336C150.696 170.651 150.984 169.232 151.56 168.08C152.136 166.907 152.915 166.032 153.896 165.456C154.877 164.88 155.997 164.592 157.256 164.592C158.792 164.592 160.147 165.04 161.32 165.936C162.493 166.811 163.272 168.133 163.656 169.904L173 164.304L173 167.792ZM161.544 176.624L161.544 172.336C161.544 170.757 161.16 169.573 160.392 168.784C159.603 167.995 158.557 167.6 157.256 167.6C155.933 167.6 154.909 167.995 154.184 168.784C153.459 169.552 153.096 170.736 153.096 172.336L153.096 176.624L161.544 176.624ZM150.696 153.123C150.696 150.691 151.155 148.59 152.072 146.819C152.968 145.027 154.259 143.662 155.944 142.723C157.629 141.763 159.613 141.283 161.896 141.283C164.179 141.283 166.163 141.763 167.848 142.723C169.512 143.662 170.792 145.027 171.688 146.819C172.563 148.59 173 150.691 173 153.123L173 160.067L150.696 160.067L150.696 153.123ZM170.6 153.123C170.6 150.243 169.843 148.046 168.328 146.531C166.792 145.017 164.648 144.259 161.896 144.259C159.123 144.259 156.957 145.027 155.4 146.563C153.843 148.078 153.064 150.265 153.064 153.123L153.064 157.155L170.6 157.155L170.6 153.123ZM153.064 134.53L160.52 134.53L160.52 126.402L162.92 126.402L162.92 134.53L170.6 134.53L170.6 125.442L173 125.442L173 137.442L150.664 137.442L150.664 125.442L153.064 125.442L153.064 134.53ZM173 103.5L173 106.412L155.24 118.124L173 118.124L173 121.036L150.664 121.036L150.664 118.124L168.392 106.412L150.664 106.412L150.664 103.5L173 103.5ZM168.04 85.352L168.04 95.08L173 96.872L173 99.944L150.824 91.88L150.824 88.52L173 80.488L173 83.56L168.04 85.352ZM165.672 86.184L154.408 90.216L165.672 94.248L165.672 86.184ZM150.696 70.0295C150.696 67.5975 151.155 65.4962 152.072 63.7255C152.968 61.9335 154.259 60.5682 155.944 59.6295C157.629 58.6695 159.613 58.1895 161.896 58.1895C164.179 58.1895 166.163 58.6695 167.848 59.6295C169.512 60.5682 170.792 61.9335 171.688 63.7255C172.563 65.4962 173 67.5975 173 70.0295L173 76.9735L150.696 76.9735L150.696 70.0295ZM170.6 70.0295C170.6 67.1495 169.843 64.9522 168.328 63.4375C166.792 61.9228 164.648 61.1655 161.896 61.1655C159.123 61.1655 156.957 61.9335 155.4 63.4695C153.843 64.9842 153.064 67.1708 153.064 70.0295L153.064 74.0615L170.6 74.0615L170.6 70.0295ZM168.04 41.1645L168.04 50.8925L173 52.6845L173 55.7565L150.824 47.6925L150.824 44.3325L173 36.3005L173 39.3725L168.04 41.1645ZM165.672 41.9965L154.408 46.0285L165.672 50.0605L165.672 41.9965Z" fill="#5D6169"/>
<path d="M370.696 166.928L373.064 166.928L373.064 176.624L380.584 176.624L380.584 168.752L382.952 168.752L382.952 176.624L393 176.624L393 179.536L370.696 179.536L370.696 166.928ZM370.696 160.499L393 160.499L393 163.411L370.696 163.411L370.696 160.499ZM381.832 156.624C379.656 156.624 377.704 156.133 375.976 155.152C374.227 154.171 372.861 152.837 371.88 151.152C370.899 149.445 370.408 147.557 370.408 145.488C370.408 143.056 370.995 140.933 372.168 139.12C373.341 137.307 375.005 135.984 377.16 135.152L377.16 138.64C375.816 139.259 374.781 140.155 374.056 141.328C373.331 142.48 372.968 143.867 372.968 145.488C372.968 147.045 373.331 148.443 374.056 149.68C374.781 150.917 375.816 151.888 377.16 152.592C378.483 153.296 380.04 153.648 381.832 153.648C383.603 153.648 385.16 153.296 386.504 152.592C387.827 151.888 388.851 150.917 389.576 149.68C390.301 148.443 390.664 147.045 390.664 145.488C390.664 143.867 390.312 142.48 389.608 141.328C388.883 140.155 387.848 139.259 386.504 138.64L386.504 135.152C388.637 135.984 390.291 137.307 391.464 139.12C392.616 140.933 393.192 143.056 393.192 145.488C393.192 147.557 392.712 149.445 391.752 151.152C390.771 152.837 389.416 154.171 387.688 155.152C385.96 156.133 384.008 156.624 381.832 156.624ZM370.696 127.905L393 127.905L393 130.817L370.696 130.817L370.696 127.905ZM373.064 120.03L380.52 120.03L380.52 111.902L382.92 111.902L382.92 120.03L390.6 120.03L390.6 110.942L393 110.942L393 122.942L370.664 122.942L370.664 110.942L373.064 110.942L373.064 120.03ZM393 89L393 91.912L375.24 103.624L393 103.624L393 106.536L370.664 106.536L370.664 103.624L388.392 91.912L370.664 91.912L370.664 89L393 89ZM370.696 70.308L373.064 70.308L373.064 76.388L393 76.388L393 79.3L373.064 79.3L373.064 85.412L370.696 85.412L370.696 70.308ZM373.064 63.8115L380.52 63.8115L380.52 55.6835L382.92 55.6835L382.92 63.8115L390.6 63.8115L390.6 54.7235L393 54.7235L393 66.7235L370.664 66.7235L370.664 54.7235L373.064 54.7235L373.064 63.8115Z" fill="#5D6169"/>
<path d="M503.224 169.424C503.224 171.493 502.744 173.381 501.784 175.088C500.803 176.795 499.448 178.149 497.72 179.152C495.971 180.133 494.008 180.624 491.832 180.624C489.656 180.624 487.704 180.133 485.976 179.152C484.227 178.149 482.872 176.795 481.912 175.088C480.931 173.381 480.44 171.493 480.44 169.424C480.44 167.333 480.931 165.435 481.912 163.728C482.872 162.021 484.216 160.677 485.944 159.696C487.672 158.715 489.635 158.224 491.832 158.224C494.029 158.224 495.992 158.715 497.72 159.696C499.448 160.677 500.803 162.021 501.784 163.728C502.744 165.435 503.224 167.333 503.224 169.424ZM500.696 169.424C500.696 167.867 500.333 166.469 499.608 165.232C498.883 163.973 497.848 162.992 496.504 162.288C495.16 161.563 493.603 161.2 491.832 161.2C490.04 161.2 488.483 161.563 487.16 162.288C485.816 162.992 484.781 163.963 484.056 165.2C483.331 166.437 482.968 167.845 482.968 169.424C482.968 171.003 483.331 172.411 484.056 173.648C484.781 174.885 485.816 175.867 487.16 176.592C488.483 177.296 490.04 177.648 491.832 177.648C493.603 177.648 495.16 177.296 496.504 176.592C497.848 175.867 498.883 174.885 499.608 173.648C500.333 172.389 500.696 170.981 500.696 169.424ZM480.856 131.756L503 131.756L503 134.668L486.488 134.668L503 142.028L503 144.076L486.456 151.468L503 151.468L503 154.38L480.856 154.38L480.856 151.244L499.16 143.052L480.856 134.86L480.856 131.756ZM487.224 111.905C489.08 111.905 490.627 112.545 491.864 113.825C493.08 115.084 493.688 117.015 493.688 119.617L493.688 123.905L503 123.905L503 126.817L480.696 126.817L480.696 119.617C480.696 117.1 481.304 115.191 482.52 113.889C483.736 112.567 485.304 111.905 487.224 111.905ZM491.288 119.617C491.288 117.996 490.936 116.801 490.232 116.033C489.528 115.265 488.525 114.881 487.224 114.881C484.472 114.881 483.096 116.46 483.096 119.617L483.096 123.905L491.288 123.905L491.288 119.617ZM483.064 105.374L490.52 105.374L490.52 97.246L492.92 97.246L492.92 105.374L500.6 105.374L500.6 96.286L503 96.286L503 108.286L480.664 108.286L480.664 96.286L483.064 96.286L483.064 105.374ZM480.696 78.1517L483.064 78.1517L483.064 84.2317L503 84.2317L503 87.1437L483.064 87.1437L483.064 93.2557L480.696 93.2557L480.696 78.1517ZM480.696 71.6552L503 71.6552L503 74.5672L480.696 74.5672L480.696 71.6552ZM480.696 52.9642L483.064 52.9642L483.064 59.0442L503 59.0442L503 61.9562L483.064 61.9562L483.064 68.0682L480.696 68.0682L480.696 52.9642ZM480.696 46.4677L503 46.4677L503 49.3797L480.696 49.3797L480.696 46.4677ZM480.696 23.0727L503 31.4887L503 34.8487L480.696 43.2647L480.696 40.1607L499.928 33.1527L480.696 26.1447L480.696 23.0727ZM498.04 6.69575L498.04 16.4237L503 18.2157L503 21.2877L480.824 13.2237L480.824 9.86375L503 1.83175L503 4.90375L498.04 6.69575ZM495.672 7.52775L484.408 11.5597L495.672 15.5917L495.672 7.52775Z" fill="#5D6169"/>
<path d="M711.832 180.624C709.656 180.624 707.704 180.133 705.976 179.152C704.227 178.171 702.861 176.837 701.88 175.152C700.899 173.445 700.408 171.557 700.408 169.488C700.408 167.056 700.995 164.933 702.168 163.12C703.341 161.307 705.005 159.984 707.16 159.152L707.16 162.64C705.816 163.259 704.781 164.155 704.056 165.328C703.331 166.48 702.968 167.867 702.968 169.488C702.968 171.045 703.331 172.443 704.056 173.68C704.781 174.917 705.816 175.888 707.16 176.592C708.483 177.296 710.04 177.648 711.832 177.648C713.603 177.648 715.16 177.296 716.504 176.592C717.827 175.888 718.851 174.917 719.576 173.68C720.301 172.443 720.664 171.045 720.664 169.488C720.664 167.867 720.312 166.48 719.608 165.328C718.883 164.155 717.848 163.259 716.504 162.64L716.504 159.152C718.637 159.984 720.291 161.307 721.464 163.12C722.616 164.933 723.192 167.056 723.192 169.488C723.192 171.557 722.712 173.445 721.752 175.152C720.771 176.837 719.416 178.171 717.688 179.152C715.96 180.133 714.008 180.624 711.832 180.624ZM700.696 141.089L703.064 141.089L703.064 147.169L723 147.169L723 150.081L703.064 150.081L703.064 156.193L700.696 156.193L700.696 141.089ZM700.696 134.593L723 134.593L723 137.505L700.696 137.505L700.696 134.593ZM700.696 111.198L723 119.614L723 122.974L700.696 131.39L700.696 128.286L719.928 121.278L700.696 114.27L700.696 111.198ZM718.04 94.8207L718.04 104.549L723 106.341L723 109.413L700.824 101.349L700.824 97.9887L723 89.9567L723 93.0287L718.04 94.8207ZM715.672 95.6527L704.408 99.6847L715.672 103.717L715.672 95.6527ZM700.696 79.4982C700.696 77.0662 701.155 74.9649 702.072 73.1942C702.968 71.4022 704.259 70.0369 705.944 69.0982C707.629 68.1382 709.613 67.6582 711.896 67.6582C714.179 67.6582 716.163 68.1382 717.848 69.0982C719.512 70.0369 720.792 71.4022 721.688 73.1942C722.563 74.9649 723 77.0662 723 79.4982L723 86.4422L700.696 86.4422L700.696 79.4982ZM720.6 79.4982C720.6 76.6182 719.843 74.4209 718.328 72.9062C716.792 71.3916 714.648 70.6342 711.896 70.6342C709.123 70.6342 706.957 71.4022 705.4 72.9382C703.843 74.4529 703.064 76.6396 703.064 79.4982L703.064 83.5302L720.6 83.5302L720.6 79.4982ZM718.04 50.6332L718.04 60.3612L723 62.1532L723 65.2252L700.824 57.1612L700.824 53.8012L723 45.7692L723 48.8412L718.04 50.6332ZM715.672 51.4652L704.408 55.4972L715.672 59.5292L715.672 51.4652Z" fill="#5D6169"/>
<path d="M810.696 176.624L833 176.624L833 179.536L810.696 179.536L810.696 176.624ZM833 154.125L833 157.037L815.24 168.749L833 168.749L833 171.661L810.664 171.661L810.664 168.749L828.392 157.037L810.664 157.037L810.664 154.125L833 154.125ZM828.04 135.977L828.04 145.705L833 147.497L833 150.569L810.824 142.505L810.824 139.145L833 131.113L833 134.185L828.04 135.977ZM825.672 136.809L814.408 140.841L825.672 144.873L825.672 136.809ZM805.864 137.705L809.512 144.521L807.336 144.521L803.336 137.705L805.864 137.705ZM810.856 104.974L833 104.974L833 107.886L816.488 107.886L833 115.246L833 117.294L816.456 124.686L833 124.686L833 127.599L810.856 127.598L810.856 124.462L829.16 116.27L810.856 108.078L810.856 104.974ZM810.696 97.124L833 97.124L833 100.036L810.696 100.036L810.696 97.124ZM821.832 93.249C819.656 93.249 817.704 92.7583 815.976 91.777C814.227 90.7957 812.861 89.4623 811.88 87.777C810.899 86.0703 810.408 84.1823 810.408 82.113C810.408 79.681 810.995 77.5583 812.168 75.745C813.341 73.9317 815.005 72.609 817.16 71.777L817.16 75.265C815.816 75.8837 814.781 76.7797 814.056 77.953C813.331 79.105 812.968 80.4917 812.968 82.113C812.968 83.6703 813.331 85.0677 814.056 86.305C814.781 87.5423 815.816 88.513 817.16 89.217C818.483 89.921 820.04 90.273 821.832 90.273C823.603 90.273 825.16 89.921 826.504 89.217C827.827 88.513 828.851 87.5423 829.576 86.305C830.301 85.0677 830.664 83.6703 830.664 82.113C830.664 80.4917 830.312 79.105 829.608 77.953C828.883 76.7797 827.848 75.8837 826.504 75.265L826.504 71.777C828.637 72.609 830.291 73.9317 831.464 75.745C832.616 77.5583 833.192 79.681 833.192 82.113C833.192 84.1823 832.712 86.0703 831.752 87.777C830.771 89.4623 829.416 90.7957 827.688 91.777C825.96 92.7583 824.008 93.249 821.832 93.249ZM828.04 54.2582L828.04 63.9863L833 65.7783L833 68.8503L810.824 60.7862L810.824 57.4262L833 49.3942L833 52.4662L828.04 54.2582ZM825.672 55.0902L814.408 59.1222L825.672 63.1542L825.672 55.0902Z" fill="#5D6169"/>
<path d="M920.856 156.912L943 156.912L943 159.824L926.488 159.824L943 167.184L943 169.232L926.456 176.624L943 176.624L943 179.536L920.856 179.536L920.856 176.4L939.16 168.208L920.856 160.016L920.856 156.912ZM920.696 149.061L943 149.061L943 151.973L920.696 151.973L920.696 149.061ZM927.16 127.202C925.859 127.821 924.856 128.717 924.152 129.89C923.427 131.064 923.064 132.429 923.064 133.986C923.064 135.544 923.427 136.952 924.152 138.21C924.856 139.448 925.88 140.429 927.224 141.154C928.547 141.858 930.083 142.21 931.832 142.21C933.581 142.21 935.117 141.858 936.44 141.154C937.763 140.429 938.787 139.448 939.512 138.21C940.216 136.952 940.568 135.544 940.568 133.986C940.568 131.81 939.917 130.018 938.616 128.61C937.315 127.202 935.555 126.381 933.336 126.146L933.336 135.042L930.968 135.042L930.968 123.042L933.208 123.042C935.043 123.213 936.728 123.789 938.264 124.77C939.779 125.752 940.984 127.042 941.88 128.642C942.755 130.242 943.192 132.024 943.192 133.986C943.192 136.056 942.712 137.944 941.752 139.65C940.771 141.357 939.416 142.712 937.688 143.714C935.96 144.696 934.008 145.186 931.832 145.186C929.656 145.186 927.704 144.696 925.976 143.714C924.227 142.712 922.872 141.357 921.912 139.65C920.931 137.944 920.44 136.056 920.44 133.986C920.44 131.618 921.027 129.528 922.2 127.714C923.373 125.88 925.027 124.546 927.16 123.714L927.16 127.202ZM938.04 106.008L938.04 115.736L943 117.528L943 120.6L920.824 112.536L920.824 109.176L943 101.144L943 104.216L938.04 106.008ZM935.672 106.84L924.408 110.872L935.672 114.904L935.672 106.84ZM931.512 86.4617C931.64 85.6511 931.971 84.9151 932.504 84.2537C933.037 83.5711 933.699 83.0377 934.488 82.6537C935.277 82.2484 936.12 82.0457 937.016 82.0457C938.147 82.0457 939.171 82.3337 940.088 82.9097C940.984 83.4857 941.699 84.3284 942.232 85.4377C942.744 86.5257 943 87.8164 943 89.3097L943 97.6297L920.696 97.6297L920.696 89.6297C920.696 88.1151 920.952 86.8244 921.464 85.7577C921.955 84.6911 922.627 83.8911 923.48 83.3577C924.333 82.8244 925.293 82.5577 926.36 82.5577C927.683 82.5577 928.781 82.9204 929.656 83.6457C930.509 84.3497 931.128 85.2884 931.512 86.4617ZM930.328 94.7177L930.328 89.8217C930.328 88.4564 930.008 87.4004 929.368 86.6537C928.728 85.9071 927.843 85.5337 926.712 85.5337C925.581 85.5337 924.696 85.9071 924.056 86.6537C923.416 87.4004 923.096 88.4777 923.096 89.8857L923.096 94.7177L930.328 94.7177ZM940.6 89.5657C940.6 88.1151 940.259 86.9844 939.576 86.1737C938.893 85.3631 937.944 84.9577 936.728 84.9577C935.491 84.9577 934.52 85.3844 933.816 86.2377C933.091 87.0911 932.728 88.2324 932.728 89.6617L932.728 94.7177L940.6 94.7177L940.6 89.5657ZM940.632 75.0927L940.632 67.2847L943 67.2847L943 78.0047L920.696 78.0047L920.696 75.0927L940.632 75.0927ZM923.064 61.2802L930.52 61.2802L930.52 53.1522L932.92 53.1522L932.92 61.2802L940.6 61.2802L940.6 52.1922L943 52.1922L943 64.1922L920.664 64.1922L920.664 52.1922L923.064 52.1922L923.064 61.2802Z" fill="#5D6169"/>
</svg>
