<svg id="Layer_1" data-name="Layer 1" xmlns="http://www.w3.org/2000/svg" viewBox="0 0 25.03 25.03"><defs><style>.cls-1{fill:#fff;}</style></defs><path class="cls-1" d="M12.51,9.94a2.8,2.8,0,1,0,2.8,2.8,2.79,2.79,0,0,0-2.8-2.8"/><path class="cls-1" d="M19.32,9.15A3.22,3.22,0,0,0,19.15,8a3.08,3.08,0,0,0-3-2.11c-2.41,0-4.82,0-7.22,0a3.58,3.58,0,0,0-1.08.16,3.06,3.06,0,0,0-2.12,3v7.23a3.2,3.2,0,0,0,.17,1.1,3.1,3.1,0,0,0,3,2.1h7.28a3.12,3.12,0,0,0,3.17-3.2V9.15M12.5,17a4.27,4.27,0,1,1,4.28-4.27A4.29,4.29,0,0,1,12.5,17m4.42-7.63A1.08,1.08,0,1,1,18,8.32a1.08,1.08,0,0,1-1.11,1.06"/><path class="cls-1" d="M12.52.52a12,12,0,1,0,12,12,12,12,0,0,0-12-12m8.27,15.9A4.39,4.39,0,0,1,20,19a4.52,4.52,0,0,1-3.85,2H8.89A4.13,4.13,0,0,1,8,20.93a4.47,4.47,0,0,1-3.59-3.41c-.07-.24-.09-.49-.14-.74V8.7c0-.17,0-.34.08-.51A4.51,4.51,0,0,1,7.73,4.6c.24-.07.49-.09.74-.14h8.08l.16,0A4.22,4.22,0,0,1,18,4.83a4.47,4.47,0,0,1,2.76,4.22c0,2.46,0,4.92,0,7.37"/></svg>