<svg id="Layer_1" data-name="Layer 1" xmlns="http://www.w3.org/2000/svg" viewBox="0 0 25.03 25.03"><defs><style>.cls-1{fill:#fff;}</style></defs><path class="cls-1" d="M12.52.52a12,12,0,1,0,12,12,12,12,0,0,0-12-12m7.29,8.69a.18.18,0,0,0-.07.15,10.11,10.11,0,0,1-2.48,7,9.29,9.29,0,0,1-5.18,3.09,10.32,10.32,0,0,1-2.21.24,10,10,0,0,1-5.31-1.5L4.5,18.1a7,7,0,0,0,5.12-1.46,2.45,2.45,0,0,1-.48,0,3.44,3.44,0,0,1-2.75-2.3c0-.1,0-.07.07-.07a3.41,3.41,0,0,0,1.42-.06h0a3.49,3.49,0,0,1-2.36-1.78,3.35,3.35,0,0,1-.41-1.68,3.68,3.68,0,0,0,1.57.43A3.53,3.53,0,0,1,5.25,9a3.41,3.41,0,0,1,.39-2.53l.3.35A9.86,9.86,0,0,0,9.22,9.23a9.87,9.87,0,0,0,2.65.79c.29,0,.59.07.89.09.07,0,.08,0,.06-.07a3.47,3.47,0,0,1,2.36-4,3.39,3.39,0,0,1,3.53.85.18.18,0,0,0,.19.06,7.39,7.39,0,0,0,2-.77l.06,0h0a3.4,3.4,0,0,1-.41.86,3.56,3.56,0,0,1-1,1,.08.08,0,0,0,0,0,4.9,4.9,0,0,0,.65-.11,4.64,4.64,0,0,0,.64-.17l.64-.24s0,.07-.05.1a6.84,6.84,0,0,1-1.59,1.63"/></svg>