<svg width="960" height="70" viewBox="0 0 960 70" fill="none" xmlns="http://www.w3.org/2000/svg">
<g clip-path="url(#clip0_87_31)">
<path d="M39.0699 10.1201C42.2634 13.3225 44.4372 17.3988 45.317 21.8349C46.1969 26.2711 45.7434 30.8685 44.0139 35.0474C42.2844 39.2262 39.3563 42.7995 35.5988 45.3164C31.8412 47.8333 27.4225 49.1812 22.8999 49.1902H22.1499V36.1201H22.8999C25.4488 36.0387 27.8661 34.969 29.6404 33.1372C31.4146 31.3054 32.4066 28.8553 32.4066 26.3052C32.4066 23.755 31.4146 21.3047 29.6404 19.4729C27.8661 17.6411 25.4488 16.5716 22.8999 16.4902H13.08V68.8301H0V3.40014H22.8999C25.9109 3.35897 28.8986 3.93373 31.6793 5.08934C34.46 6.24496 36.975 7.957 39.0699 10.1201Z" fill="white"/>
<path d="M117.31 3.41003H163.21L157.89 16.4999H141.53V68.84H128.45V16.4999H112.09L117.31 3.41003Z" fill="white"/>
<path d="M220.8 39.4401C218.188 43.2153 214.487 46.1039 210.19 47.7201L224.96 68.84H208.96L192.21 44.91V68.84H179.21V3.41003H192.21V36.12H202.02C204.569 36.0386 206.986 34.9689 208.76 33.1371C210.535 31.3053 211.527 28.8552 211.527 26.3051C211.527 23.7549 210.535 21.3046 208.76 19.4728C206.986 17.641 204.569 16.5715 202.02 16.4901H201.27V3.40002H202.02C206.205 3.40087 210.309 4.54942 213.887 6.72083C217.464 8.89223 220.378 12.0034 222.31 15.7155C224.243 19.4275 225.12 23.5985 224.847 27.7745C224.573 31.9505 223.16 35.9715 220.76 39.4L220.8 39.4401Z" fill="white"/>
<path d="M257.35 68.84H244.26V3.41003H257.35V68.84Z" fill="white"/>
<path d="M294.29 50.0099C296.114 51.8374 298.281 53.2873 300.666 54.2765C303.051 55.2657 305.608 55.7748 308.19 55.7748C310.772 55.7748 313.329 55.2657 315.714 54.2765C318.099 53.2873 320.266 51.8374 322.09 50.0099L331.34 59.2599C328.305 62.2445 324.741 64.6386 320.83 66.32C315.856 68.4195 310.439 69.2554 305.063 68.7531C299.687 68.2508 294.519 66.426 290.02 63.4413C285.52 60.4566 281.829 56.4049 279.276 51.6474C276.723 46.8899 275.387 41.5743 275.387 36.175C275.387 30.7757 276.723 25.4603 279.276 20.7028C281.829 15.9453 285.52 11.8936 290.02 8.90887C294.519 5.92418 299.687 4.09915 305.063 3.59686C310.439 3.09456 315.856 3.93044 320.83 6.02996C324.725 7.71377 328.285 10.0849 331.34 13.03L322.09 22.3701C320.281 20.5152 318.115 19.0458 315.722 18.0507C313.33 17.0556 310.761 16.5554 308.17 16.58C304.288 16.5802 300.493 17.7316 297.265 19.8886C294.037 22.0456 291.521 25.1114 290.035 28.6982C288.549 32.285 288.161 36.2318 288.918 40.0395C289.675 43.8472 291.545 47.3447 294.29 50.09V50.0099Z" fill="white"/>
<path d="M361.74 68.84H348.65V3.41003H361.74V68.84Z" fill="white"/>
<path d="M433.85 13.0399C439.147 18.3824 442.429 25.395 443.137 32.8847C443.846 40.3743 441.937 47.8782 437.737 54.1193C433.536 60.3604 427.303 64.9532 420.097 67.1161C412.892 69.2791 405.16 68.8786 398.216 65.9828C391.273 63.087 385.548 57.8747 382.014 51.233C378.481 44.5914 377.358 36.9304 378.837 29.5541C380.315 22.1778 384.304 15.5417 390.125 10.775C395.945 6.00842 403.237 3.40587 410.76 3.41005C415.062 3.35371 419.331 4.17913 423.302 5.83534C427.273 7.49156 430.863 9.94335 433.85 13.0399V13.0399ZM424.59 50.0399C427.795 46.834 429.789 42.6159 430.232 38.1044C430.675 33.5929 429.539 29.0676 427.019 25.2995C424.499 21.5314 420.75 18.7538 416.412 17.4403C412.073 16.1269 407.413 16.3589 403.226 18.0966C399.039 19.8343 395.585 22.9702 393.451 26.9699C391.317 30.9696 390.637 35.5855 391.526 40.0307C392.414 44.4758 394.817 48.4752 398.325 51.3471C401.832 54.219 406.227 55.7856 410.76 55.7799C413.337 55.816 415.895 55.3225 418.274 54.33C420.653 53.3375 422.802 51.8671 424.59 50.0099V50.0399Z" fill="white"/>
<path d="M95.7701 68.84H109.69L81.6501 6.49997L80.1601 3.40997L78.8501 6.49997L50.8101 68.84H64.7401L80.2501 34.53L95.7701 68.84Z" fill="white"/>
<path d="M579.86 55.7499H606.03V68.84H566.78V3.41003H579.86V55.7499Z" fill="white"/>
<path d="M736.46 39.4401C733.846 43.2135 730.145 46.1016 725.85 47.7201L740.61 68.84H724.61L707.88 44.91V68.84H694.8V3.41003H707.88V36.12H717.7C720.249 36.0386 722.666 34.9689 724.44 33.1371C726.215 31.3053 727.207 28.8552 727.207 26.3051C727.207 23.7549 726.215 21.3046 724.44 19.4728C722.666 17.641 720.249 16.5715 717.7 16.4901H716.95V3.40002H717.7C721.883 3.40437 725.986 4.55501 729.561 6.72717C733.136 8.89933 736.048 12.01 737.98 15.7208C739.912 19.4317 740.789 23.6008 740.518 27.7755C740.246 31.9502 738.836 35.9707 736.44 39.4L736.46 39.4401Z" fill="white"/>
<path d="M774.4 50.0098C776.225 51.8376 778.393 53.2878 780.779 54.2771C783.165 55.2665 785.722 55.7757 788.305 55.7757C790.888 55.7757 793.446 55.2665 795.832 54.2771C798.217 53.2878 800.385 51.8376 802.21 50.0098L811.46 59.2598C808.421 62.2447 804.854 64.6387 800.94 66.3198C795.965 68.4217 790.548 69.2596 785.171 68.7588C779.794 68.258 774.624 66.4341 770.123 63.4497C765.622 60.4653 761.93 56.4133 759.376 51.655C756.822 46.8968 755.485 41.5804 755.485 36.18C755.485 30.7795 756.822 25.4631 759.376 20.7049C761.93 15.9466 765.622 11.8946 770.123 8.91017C774.624 5.92576 779.794 4.10166 785.171 3.60085C790.548 3.10004 795.965 3.93792 800.94 6.03981C804.84 7.71929 808.404 10.0908 811.46 13.0398L802.21 22.3799C800.399 20.5248 798.231 19.0554 795.837 18.0603C793.443 17.0653 790.872 16.565 788.28 16.5899C784.398 16.5901 780.603 17.7415 777.375 19.8985C774.147 22.0554 771.631 25.1212 770.145 28.708C768.66 32.2948 768.271 36.2416 769.028 40.0493C769.785 43.857 771.655 47.3546 774.4 50.0999V50.0098Z" fill="white"/>
<path d="M906.79 3.41003L938.19 32.0099L959.13 51.17V68.84L919.87 33.0399V68.84H906.79V3.41003ZM946.04 3.41003H959.13V39.12L946.04 26.9701V3.41003Z" fill="white"/>
<path d="M650.41 34.99L650.44 35.05L650.42 34.97L650.41 34.99Z" fill="white"/>
<path d="M665.92 68.84H679.84L651.8 6.49997L650.31 3.40997L649 6.49997L620.96 68.84H634.89L636.21 65.97L644.36 47.94L645.26 45.94L650.4 34.54L650.41 34.56L650.42 34.54L650.44 34.62L655.54 45.94H655.45L665.92 68.84Z" fill="white"/>
<path d="M537.73 68.84H551.65L523.62 6.49997L522.12 3.40997L520.81 6.49997L492.77 68.84H506.7L508.02 65.97L516.17 47.94L517.08 45.94L522.22 34.54L522.23 34.56L522.24 34.54L522.25 34.62L527.36 45.94H527.26L537.73 68.84Z" fill="white"/>
<path d="M881.9 12.91C879.784 10.7767 877.397 8.93089 874.8 7.42004L869.21 19.42C870.441 20.2168 871.584 21.142 872.62 22.1801C875.369 24.9276 877.242 28.4288 878.001 32.2408C878.761 36.0529 878.372 40.0047 876.886 43.5961C875.399 47.1874 872.88 50.2571 869.648 52.4169C866.417 54.5766 862.617 55.7294 858.73 55.7294C854.843 55.7294 851.043 54.5766 847.812 52.4169C844.58 50.2571 842.061 47.1874 840.574 43.5961C839.088 40.0047 838.699 36.0529 839.459 32.2408C840.218 28.4288 842.09 24.9276 844.84 22.1801C845.885 21.1273 847.042 20.1918 848.29 19.39L842.7 7.39001C840.086 8.901 837.688 10.7578 835.57 12.91C830.968 17.4952 827.831 23.3428 826.554 29.7125C825.278 36.0822 825.921 42.6875 828.402 48.6915C830.882 54.6956 835.089 59.8285 840.489 63.4401C845.889 67.0517 852.239 68.9794 858.735 68.9794C865.231 68.9794 871.581 67.0517 876.981 63.4401C882.381 59.8285 886.588 54.6956 889.068 48.6915C891.549 42.6875 892.192 36.0822 890.916 29.7125C889.639 23.3428 886.502 17.4952 881.9 12.91V12.91Z" fill="white"/>
<path d="M864.18 0H853.34V36.48H864.18V0Z" fill="#E40428"/>
</g>
<defs>
<clipPath id="clip0_87_31">
<rect width="959.13" height="69.27" fill="white"/>
</clipPath>
</defs>
</svg>
