<svg width="602" height="183" viewBox="0 0 602 183" fill="none" xmlns="http://www.w3.org/2000/svg">
<g clip-path="url(#clip0_92_69)">
<path d="M47.4021 85.9232L40.1137 73.8655C38.0505 74.2749 35.9516 74.4768 33.8483 74.4684C27.8338 74.5047 21.9321 72.8324 16.8279 69.6453C11.6142 66.4127 7.36834 61.8304 4.53801 56.3818C1.51269 50.7147 0 44.31 0 37.1678C0 30.0257 1.51269 23.621 4.53801 17.9539C7.35342 12.4948 11.6027 7.90889 16.8279 4.69038C21.9469 1.54655 27.844 -0.0952365 33.8483 -0.0482975C39.8675 -0.106742 45.7811 1.53562 50.9109 4.69038C56.1092 7.91402 60.328 12.5007 63.1106 17.9539C66.0998 23.621 67.5964 30.0257 67.6004 37.1678C67.6602 42.8475 66.5454 48.4781 64.3263 53.705C62.3041 58.5245 59.2392 62.8343 55.3526 66.3234L69.2796 85.8991L47.4021 85.9232ZM22.7261 50.7388C25.4063 54.0748 29.1158 55.7408 33.8544 55.7368C38.5328 55.7368 42.2262 54.0547 44.9346 50.6906C47.6429 47.3265 48.9971 42.827 48.9971 37.192C48.9971 31.4204 47.6429 26.8706 44.9346 23.5426C42.2262 20.2147 38.5328 18.5487 33.8544 18.5447C29.1198 18.5447 25.4103 20.2107 22.7261 23.5426C20.0418 26.8746 18.7016 31.4244 18.7056 37.192C18.7016 42.8953 20.0398 47.4109 22.72 50.7388H22.7261Z" fill="#1D216C"/>
<path d="M93.8714 1.13334V43.269C93.8714 47.1878 94.6979 50.2022 96.351 52.3123C98.0041 54.4224 100.512 55.4876 103.874 55.5077C107.245 55.5077 109.784 54.4245 111.494 52.2581C113.203 50.0917 114.062 47.0773 114.07 43.2148V1.0791H132.39V43.2148C132.39 49.8747 131.112 55.5579 128.556 60.2644C126.211 64.7599 122.582 68.4538 118.132 70.8752C113.631 73.2725 108.599 74.4958 103.501 74.4323C98.4906 74.5192 93.5445 73.293 89.1529 70.8752C84.8669 68.4313 81.4134 64.7534 79.2403 60.3187C76.8329 55.6483 75.6292 49.947 75.6292 43.2148V1.0791L93.8714 1.13334Z" fill="#1D216C"/>
<path d="M160.816 1.1333V73.763H142.489V1.1333H160.816Z" fill="#1D216C"/>
<path d="M220.935 1.1333V17.2063H203.355V73.763H185.028V17.2063H167.641V1.1333H220.935Z" fill="#1D216C"/>
<path d="M242.343 69.6936C237.126 66.4629 232.878 61.8803 230.047 56.4301C227.026 50.7629 225.515 44.3582 225.515 37.216C225.515 30.0738 227.026 23.6692 230.047 18.002C232.864 12.5422 237.116 7.95622 242.343 4.73856C247.46 1.59462 253.355 -0.0472209 259.358 -0.000117948C265.377 -0.0601964 271.291 1.58228 276.42 4.73856C281.622 7.96016 285.843 12.5473 288.626 18.002C291.619 23.6692 293.114 30.0738 293.11 37.216C293.106 44.3582 291.611 50.7629 288.626 56.4301C285.82 61.8825 281.586 66.4674 276.378 69.6936C271.274 72.8806 265.372 74.5529 259.358 74.5166C253.345 74.5531 247.445 72.8807 242.343 69.6936V69.6936ZM270.438 50.6906C273.15 47.3265 274.506 42.8269 274.506 37.192C274.506 31.4203 273.15 26.8705 270.438 23.5426C267.725 20.2147 264.032 18.5487 259.358 18.5447C254.619 18.5447 250.912 20.2107 248.235 23.5426C245.559 26.8746 244.219 31.4243 244.215 37.192C244.215 42.8953 245.555 47.4109 248.235 50.7388C250.916 54.0667 254.623 55.7327 259.358 55.7367C264.036 55.7367 267.737 54.0547 270.462 50.6906H270.438Z" fill="#1D216C"/>
<path d="M30.9233 97.7097C33.7824 96.0494 37.0447 95.2147 40.3484 95.2982C44.495 95.2652 48.5451 96.5507 51.9161 98.9697C55.3707 101.425 58.0991 104.924 60.1013 109.466C62.1035 114.008 63.1065 119.323 63.1106 125.412C63.1106 131.497 62.1075 136.829 60.1013 141.407C58.0951 145.985 55.3667 149.5 51.9161 151.951C48.5451 154.37 44.495 155.656 40.3484 155.623C37.0577 155.71 33.808 154.875 30.9654 153.211C28.3549 151.627 26.205 149.384 24.7302 146.706V183.006H6.07269V96.0337H24.7302V104.215C26.162 101.52 28.304 99.2701 30.9233 97.7097ZM41.3474 116.435C40.5072 115.421 39.4514 114.607 38.2571 114.053C37.0628 113.499 35.7602 113.219 34.4442 113.234C33.1237 113.221 31.8173 113.507 30.6222 114.069C29.427 114.632 28.3739 115.457 27.5409 116.484C25.6671 118.654 24.7302 121.628 24.7302 125.406C24.7302 129.253 25.6671 132.267 27.5409 134.45C28.3727 135.478 29.4255 136.305 30.6208 136.868C31.8161 137.432 33.1231 137.718 34.4442 137.705C35.7703 137.715 37.0812 137.422 38.2773 136.849C39.4735 136.275 40.5234 135.436 41.3474 134.395C43.2212 132.193 44.1561 129.204 44.1521 125.43C44.1601 121.568 43.2333 118.57 41.3715 116.435H41.3474Z" fill="#E30427"/>
<path d="M81.3589 151.945C77.1101 149.473 73.6576 145.832 71.4102 141.455C69.0028 136.91 67.799 131.56 67.799 125.406C67.799 119.317 69.0208 114.002 71.4643 109.46C73.7418 105.087 77.2074 101.448 81.4611 98.9638C85.8243 96.4786 90.7728 95.2108 95.7914 95.2923C100.808 95.2116 105.754 96.4794 110.115 98.9638C114.369 101.448 117.835 105.087 120.112 109.46C122.556 114.006 123.78 119.321 123.784 125.406C123.788 131.492 122.564 136.823 120.112 141.401C117.84 145.804 114.356 149.463 110.073 151.945C105.691 154.427 100.728 155.694 95.695 155.617C90.6745 155.7 85.7238 154.432 81.3589 151.945ZM102.207 134.582C103.952 132.448 104.825 129.389 104.825 125.406C104.825 121.423 103.952 118.381 102.207 116.279C101.451 115.295 100.477 114.499 99.3636 113.953C98.2498 113.407 97.0253 113.126 95.7853 113.132C94.5507 113.122 93.331 113.402 92.2234 113.948C91.1158 114.495 90.1509 115.293 89.4057 116.279C87.6884 118.377 86.8317 121.419 86.8357 125.406C86.8357 129.462 87.6603 132.539 89.3094 134.637C90.0449 135.633 91.0078 136.439 92.1177 136.986C93.2276 137.534 94.4521 137.807 95.689 137.784C96.9492 137.795 98.1945 137.511 99.3261 136.955C100.458 136.4 101.444 135.587 102.207 134.582V134.582Z" fill="#E30427"/>
<path d="M180.996 102.267C184.607 106.781 186.413 112.884 186.413 120.577V154.881H167.755V123.308C167.755 119.952 166.963 117.312 165.378 115.386C164.61 114.444 163.634 113.693 162.527 113.192C161.42 112.691 160.212 112.453 158.998 112.498C156.2 112.498 154.015 113.463 152.426 115.386C150.837 117.31 150.019 119.95 150.019 123.308V154.881H131.361V96.0336H150.019V104.426C151.677 101.76 153.965 99.5445 156.681 97.9749C159.609 96.2959 162.937 95.4437 166.311 95.5091C172.486 95.5051 177.381 97.7579 180.996 102.267Z" fill="#E30427"/>
<path d="M228.218 137.361V154.881H220.129C206.487 154.881 199.666 147.434 199.666 132.538V113.131H193.099V96.0336H199.666V81.7693H218.425V96.0336H228.139V113.137H218.425V132.858C218.425 134.468 218.756 135.625 219.425 136.318C220.093 137.012 221.23 137.367 222.807 137.367L228.218 137.361Z" fill="#E30427"/>
<path d="M287.536 129.602H252.214C252.402 132.818 253.205 135.213 254.621 136.789C255.307 137.558 256.153 138.168 257.099 138.575C258.045 138.982 259.069 139.177 260.098 139.146C263.203 139.146 265.424 137.609 266.76 134.534H286.658C285.882 138.466 284.237 142.174 281.843 145.386C279.463 148.561 276.371 151.131 272.815 152.886C269.085 154.73 264.973 155.663 260.814 155.611C255.886 155.701 251.028 154.43 246.773 151.939C242.625 149.44 239.282 145.799 237.143 141.449C234.88 136.895 233.749 131.548 233.749 125.406C233.749 119.265 234.89 113.931 237.173 109.406C239.295 105.077 242.618 101.451 246.743 98.9637C251.03 96.4641 255.921 95.1939 260.88 95.2922C265.782 95.1988 270.619 96.4317 274.879 98.8612C278.979 101.28 282.287 104.841 284.401 109.11C286.684 113.531 287.825 118.756 287.825 124.785C287.822 126.395 287.725 128.004 287.536 129.602V129.602ZM268.777 119.631C268.777 117.115 268.016 115.139 266.496 113.704C264.947 112.265 262.895 111.494 260.784 111.558C258.716 111.478 256.698 112.211 255.163 113.602C253.698 114.964 252.747 116.974 252.31 119.631H268.777Z" fill="#E30427"/>
<path d="M487.786 13.9871L556.343 76.5003L602.03 118.383V156.968L516.368 78.7189V156.968H487.816L487.786 13.9871ZM573.442 13.9871H602V92.0246L573.442 65.4976V13.9871Z" fill="#1D216C"/>
<path d="M433.468 34.7323C428.853 30.0689 423.644 26.0351 417.977 22.7349L405.783 48.9604C408.465 50.7081 410.96 52.7284 413.228 54.9893C421.678 63.4538 425.903 73.5581 425.903 85.3024C425.903 97.1792 421.678 107.316 413.228 115.712C404.778 124.108 394.691 128.306 382.967 128.306C371.11 128.306 360.991 124.108 352.609 115.712C344.227 107.316 340.036 97.1792 340.036 85.3024C340.036 73.5581 344.227 63.4538 352.609 54.9893C354.893 52.6921 357.417 50.6485 360.138 48.8941L347.945 22.6746C342.243 25.9796 337.008 30.0349 332.381 34.7323C318.406 48.7996 311.42 65.6624 311.424 85.3205C311.424 105.119 318.41 122.014 332.381 136.005C346.352 149.996 363.218 156.994 382.979 156.998C402.607 156.998 419.441 150 433.48 136.005C447.52 122.01 454.541 105.115 454.545 85.3205C454.533 65.6543 447.508 48.7916 433.468 34.7323Z" fill="#1D216C"/>
<path d="M394.787 6.52319H371.14V86.2549H394.787V6.52319Z" fill="#E30427"/>
</g>
<defs>
<clipPath id="clip0_92_69">
<rect width="602" height="183" fill="white"/>
</clipPath>
</defs>
</svg>
