<svg xmlns="http://www.w3.org/2000/svg" width="35" height="35" viewBox="0 0 35 35">
  <g id="logo-lupo" transform="translate(-398 -3681.333)">
    <circle id="Elipse_11" data-name="Elipse 11" cx="17.5" cy="17.5" r="17.5" transform="translate(398 3681.333)" fill="#fff"/>
    <g id="Grupo_49" data-name="Grupo 49" transform="translate(406.175 3687.52)">
      <g id="Grupo_1" data-name="Grupo 1" transform="translate(0 0)">
        <rect id="Rectángulo_1" data-name="Rectángulo 1" width="3.155" height="3.17" transform="translate(0 0)" fill="#64718f"/>
        <rect id="Rectángulo_2" data-name="Rectángulo 2" width="3.155" height="3.174" transform="translate(0 3.17)" fill="#1b3256"/>
        <rect id="Rectángulo_3" data-name="Rectángulo 3" width="3.155" height="3.174" transform="translate(3.155 3.17)" fill="#37496c"/>
        <rect id="Rectángulo_4" data-name="Rectángulo 4" width="3.151" height="3.174" transform="translate(6.31 3.17)" fill="#546383"/>
        <rect id="Rectángulo_5" data-name="Rectángulo 5" width="3.155" height="3.174" transform="translate(0 6.344)" fill="#37496c"/>
        <rect id="Rectángulo_6" data-name="Rectángulo 6" width="3.155" height="3.174" transform="translate(3.155 6.344)" fill="#74809b"/>
        <rect id="Rectángulo_7" data-name="Rectángulo 7" width="3.151" height="3.174" transform="translate(6.31 6.344)" fill="#1b3256"/>
        <rect id="Rectángulo_8" data-name="Rectángulo 8" width="3.155" height="3.174" transform="translate(0 9.518)" fill="#0c284c"/>
        <rect id="Rectángulo_9" data-name="Rectángulo 9" width="3.155" height="3.174" transform="translate(3.155 9.518)" fill="#ff8f00"/>
        <rect id="Rectángulo_10" data-name="Rectángulo 10" width="3.151" height="3.174" transform="translate(6.31 9.518)" fill="#293d61"/>
        <rect id="Rectángulo_11" data-name="Rectángulo 11" width="3.151" height="3.17" transform="translate(15.771 0)" fill="#64718f"/>
        <rect id="Rectángulo_12" data-name="Rectángulo 12" width="3.155" height="3.174" transform="translate(9.461 3.17)" fill="#74809b"/>
        <rect id="Rectángulo_13" data-name="Rectángulo 13" width="3.155" height="3.174" transform="translate(12.616 3.17)" fill="#455677"/>
        <rect id="Rectángulo_14" data-name="Rectángulo 14" width="3.151" height="3.174" transform="translate(15.771 3.17)" fill="#0c284c"/>
        <rect id="Rectángulo_15" data-name="Rectángulo 15" width="3.155" height="3.174" transform="translate(9.461 6.344)" fill="#64718f"/>
        <rect id="Rectángulo_16" data-name="Rectángulo 16" width="3.155" height="3.174" transform="translate(12.616 6.344)" fill="#74809b"/>
        <rect id="Rectángulo_17" data-name="Rectángulo 17" width="3.151" height="3.174" transform="translate(15.771 6.344)" fill="#74809b"/>
        <rect id="Rectángulo_18" data-name="Rectángulo 18" width="3.155" height="3.174" transform="translate(9.461 9.518)" fill="#546383"/>
        <rect id="Rectángulo_19" data-name="Rectángulo 19" width="3.155" height="3.174" transform="translate(12.616 9.518)" fill="#ff8f00"/>
        <rect id="Rectángulo_20" data-name="Rectángulo 20" width="3.151" height="3.174" transform="translate(15.771 9.518)" fill="#293d61"/>
        <rect id="Rectángulo_21" data-name="Rectángulo 21" width="3.155" height="3.174" transform="translate(0 12.692)" fill="#74809b"/>
        <rect id="Rectángulo_22" data-name="Rectángulo 22" width="3.155" height="3.174" transform="translate(3.155 12.692)" fill="#0c284c"/>
        <rect id="Rectángulo_23" data-name="Rectángulo 23" width="3.151" height="3.174" transform="translate(6.31 12.692)" fill="#293d61"/>
        <rect id="Rectángulo_24" data-name="Rectángulo 24" width="3.151" height="3.174" transform="translate(6.31 15.866)" fill="#455677"/>
        <rect id="Rectángulo_25" data-name="Rectángulo 25" width="3.151" height="3.17" transform="translate(6.31 19.04)" fill="#0c284c"/>
        <rect id="Rectángulo_26" data-name="Rectángulo 26" width="3.155" height="3.174" transform="translate(9.461 12.692)" fill="#546383"/>
        <rect id="Rectángulo_27" data-name="Rectángulo 27" width="3.155" height="3.174" transform="translate(12.616 12.692)" fill="#0c284c"/>
        <rect id="Rectángulo_28" data-name="Rectángulo 28" width="3.151" height="3.174" transform="translate(15.771 12.692)" fill="#64718f"/>
        <rect id="Rectángulo_29" data-name="Rectángulo 29" width="3.155" height="3.174" transform="translate(9.461 15.866)" fill="#64718f"/>
        <rect id="Rectángulo_30" data-name="Rectángulo 30" width="3.155" height="3.17" transform="translate(9.461 19.04)" fill="#1b3256"/>
      </g>
    </g>
  </g>
</svg>
