<svg id="Layer_1" data-name="Layer 1" xmlns="http://www.w3.org/2000/svg" viewBox="0 0 475.78 184.83">
  <defs>
    <style>
      .cls-1,
      .cls-4 {
        font-size: 92.42px;
        font-family: MovaRegular, Mova;
      }

      .cls-1,
      .cls-5,
      .cls-7 {
        fill: #051b79;
      }

      .cls-1 {
        letter-spacing: 0.05em;
      }

      .cls-2,
      .cls-4 {
        fill: #fff;
      }

      .cls-3 {
        letter-spacing: 0.05em;
      }

      .cls-4 {
        letter-spacing: 0.06em;
      }

      .cls-6,
      .cls-7 {
        letter-spacing: 0.06em;
      }

      .cls-8 {
        fill: #e02f31;
      }
    </style>
  </defs>
  <title>logo-pa</title><text class="cls-1" transform="translate(13.47 78.56)">P<tspan class="cls-2" x="59.15" y="0">A
    </tspan>
    <tspan class="cls-3" x="131.24" y="0">TRICIO</tspan>
  </text><text class="cls-4" transform="translate(0 164.22)">A<tspan class="cls-5" x="73.01" y="0">L</tspan>
    <tspan class="cls-6" x="126.62" y="0">A</tspan>
    <tspan class="cls-7" x="199.63" y="0">RCON</tspan>
  </text>
  <polygon class="cls-2" points="367.92 137.62 349.82 98.74 386.02 98.74 367.92 137.62" />
  <rect class="cls-8" x="362.85" y="96.32" width="10" height="35.98" rx="1.38" />
  <path class="cls-5"
    d="M103.29,69l-.19.46-4.25,9.24H85.08L112.81,17l1.29-3,1.48,3,27.73,61.64H129.54L119.18,56h.1l-5.09-11.28L109.11,56"
    transform="translate(-7.94 -0.11)" />
  <path class="cls-5"
    d="M30.61,155.05l-.19.46-4.25,9.24H12.4l27.72-61.64,1.3-3,1.48,3,27.72,61.64H56.85L46.5,142.11h.09l-5.08-11.27-5.08,11.27"
    transform="translate(-7.94 -0.11)" />
  <path class="cls-5"
    d="M157.36,155.05l-.18.46-4.25,9.24H139.16l27.72-61.64,1.3-3,1.48,3,27.72,61.64H183.61l-10.35-22.64h.09l-5.08-11.27-5.08,11.27"
    transform="translate(-7.94 -0.11)" />
</svg>
